# xmcd
#
# Track frame offsets: 
#        150
#        17917
#        27672
#        40012
#        48873
#        60343
#        71327
#        81842
#        94680
#        106164
#        124990
#        135402
#        152798
#
# Disc length: 2222 seconds
#
# Revision: 0
# Processed by: cddbd v1.5.2PL0 Copyright (c) Steve Scherf et al.
# Submitted via: ExactAudioCopyFreeDBPlugin 1.0
#
DISCID=a008ac0d
DTITLE=Charley Crockett - In The Night
DYEAR=2016
DGENRE=Blues
TTITLE0=In The Night
TTITLE1=Baby 1-2-3
TTITLE2=I Am Not Afraid
TTITLE3=Look What You Done
TTITLE4=I'm Workin'
TTITLE5=Silver Dagger
TTITLE6=What's Made Milwaukee Famous
TTITLE7=Cry For Me Baby
TTITLE8=Ain't Got No Time To Lose
TTITLE9=Out Of Bad Luck
TTITLE10=Wasted Days And Wasted Nights
TTITLE11=After Laughter
TTITLE12=Downtrodden Man
EXTD=
EXTT0=
EXTT1=
EXTT2=
EXTT3=
EXTT4=
EXTT5=
EXTT6=
EXTT7=
EXTT8=
EXTT9=
EXTT10=
EXTT11=
EXTT12=
PLAYORDER=
